<?xml version="1.0" encoding="UTF-8" standalone="no"?>
<svg
   xmlns:dc="http://purl.org/dc/elements/1.1/"
   xmlns:cc="http://creativecommons.org/ns#"
   xmlns:rdf="http://www.w3.org/1999/02/22-rdf-syntax-ns#"
   xmlns:svg="http://www.w3.org/2000/svg"
   xmlns="http://www.w3.org/2000/svg"
   xmlns:sodipodi="http://sodipodi.sourceforge.net/DTD/sodipodi-0.dtd"
   xmlns:inkscape="http://www.inkscape.org/namespaces/inkscape"
   aria-hidden="true"
   focusable="false"
   data-prefix="fas"
   data-icon="chart-line"
   class="svg-inline--fa fa-chart-line fa-w-16"
   role="img"
   viewBox="0 0 3224.1865 512.04999"
   version="1.1"
   id="svg60"
   sodipodi:docname="inspect-large-black.svg"
   inkscape:export-filename="/home/julian/Uni/stempel/stempel_data_collection/assets/img/inspect.png"
   inkscape:export-xdpi="96"
   inkscape:export-ydpi="96"
   inkscape:version="0.92.4 5da689c313, 2019-01-14"
   width="3224.1865"
   height="512.04999">
  <metadata
     id="metadata66">
    <rdf:RDF>
      <cc:Work
         rdf:about="">
        <dc:format>image/svg+xml</dc:format>
        <dc:type
           rdf:resource="http://purl.org/dc/dcmitype/StillImage" />
        <dc:title></dc:title>
      </cc:Work>
    </rdf:RDF>
  </metadata>
  <defs
     id="defs64" />
  <sodipodi:namedview
     pagecolor="#ffffff"
     bordercolor="#666666"
     borderopacity="1"
     objecttolerance="10"
     gridtolerance="10"
     guidetolerance="10"
     inkscape:pageopacity="0"
     inkscape:pageshadow="2"
     inkscape:window-width="1920"
     inkscape:window-height="1043"
     id="namedview62"
     showgrid="false"
     inkscape:zoom="1.4142136"
     inkscape:cx="2091.7586"
     inkscape:cy="117.48452"
     inkscape:window-x="314"
     inkscape:window-y="1440"
     inkscape:window-maximized="1"
     inkscape:current-layer="svg60"
     showguides="true"
     inkscape:guide-bbox="true"
     inkscape:pagecheckerboard="true"
     fit-margin-top="0"
     fit-margin-left="0"
     fit-margin-right="0"
     fit-margin-bottom="0">
    <sodipodi:guide
       position="0.68921334,0.12234955"
       orientation="1,0"
       id="guide110"
       inkscape:locked="false" />
    <sodipodi:guide
       position="0.4409343,-0.28614894"
       orientation="0,1"
       id="guide112"
       inkscape:locked="false" />
    <sodipodi:guide
       position="0.398759,-0.30555812"
       orientation="1,0"
       id="guide114"
       inkscape:locked="false" />
    <sodipodi:guide
       position="0.97883713,-0.34462062"
       orientation="1,0"
       id="guide116"
       inkscape:locked="false" />
    <sodipodi:guide
       position="0.70539963,0.003035625"
       orientation="0,1"
       id="guide118"
       inkscape:locked="false" />
    <sodipodi:guide
       position="0.73079025,-0.57508937"
       orientation="0,1"
       id="guide120"
       inkscape:locked="false" />
  </sodipodi:namedview>
  <path
     d="m 299.64363,259.34339 h -167.2704 v -117.7088 c 0,-3.42285 -2.77235,-6.1952 -6.1952,-6.1952 h -12.3904 c -3.42285,0 -6.1952,2.77235 -6.1952,6.1952 v 130.0992 c 0,6.84182 5.54858,12.3904 12.3904,12.3904 h 179.6608 c 3.42285,0 6.1952,-2.77235 6.1952,-6.1952 v -12.3904 c 0,-3.42285 -2.77235,-6.1952 -6.1952,-6.1952 z m -12.3904,-111.5136 H 241.5404 c -8.27834,0 -12.42525,10.00912 -6.57079,15.86358 l 12.54528,12.54528 -28.40886,28.41274 -28.40886,-28.40886 c -4.84,-4.84 -12.68468,-4.84 -17.5208,0 l -26.59677,26.59676 c -2.42,2.42 -2.42,6.34234 0,8.76234 l 8.75846,8.75846 c 2.42,2.42 6.34234,2.42 8.76234,0 l 17.83443,-17.8383 28.40886,28.40886 c 4.84,4.84 12.68468,4.84 17.5208,0 l 37.1712,-37.1712 12.54528,12.54528 c 5.85447,5.85447 15.86359,1.70756 15.86359,-6.57078 v -45.70896 c 0.003,-3.42285 -2.76848,-6.1952 -6.19133,-6.1952 z"
     id="path58"
     inkscape:connector-curvature="0"
     style="fill:#000000;stroke-width:0.3872" />
  <path
     inkscape:connector-curvature="0"
     style="fill:#000000"
     d="m 504.99999,442.7 -99.7,-99.7 c -4.5,-4.5 -10.6,-7 -17,-7 h -16.3 c 27.6,-35.3 44,-79.7 44,-128 0,-114.900001 -93.1,-208 -208,-208 C 93.099998,0 0,93.099999 0,208 c 0,114.9 93.099998,208 207.99999,208 48.3,0 92.7,-16.4 128,-44 v 16.3 c 0,6.4 2.5,12.5 7,17 l 99.7,99.7 c 9.4,9.4 24.6,9.4 33.9,0 l 28.3,-28.3 c 9.4,-9.4 9.4,-24.6 0.1,-34 z m -297,-86.7 c -70.7,0 -147.999992,-77.2 -147.999992,-148 0,-70.7 77.199992,-148.000001 147.999992,-148.000001 70.7,0 148,77.200001 148,148.000001 0,70.7 -77.2,148 -148,148 z"
     id="path116"
     sodipodi:nodetypes="csscsssscssscscsssss" />
  <text
     xml:space="preserve"
     style="font-style:normal;font-weight:normal;font-size:40px;line-height:1.25;font-family:sans-serif;letter-spacing:0px;word-spacing:0px;fill:#000000;fill-opacity:1;stroke:none;"
     x="585.76794"
     y="501.61801"
     id="text966"><tspan
       sodipodi:role="line"
       id="tspan964"
       x="585.76794"
       y="501.61801"
       style="font-style:normal;font-variant:normal;font-weight:normal;font-stretch:normal;font-size:733.33331299px;font-family:'Source Sans Pro';-inkscape-font-specification:'Source Sans Pro, Normal';font-variant-ligatures:normal;font-variant-caps:normal;font-variant-numeric:normal;font-feature-settings:normal;text-align:start;writing-mode:lr-tb;text-anchor:start;fill:#000000;">INSPECT</tspan></text>
</svg>
