<?xml version="1.0" encoding="UTF-8" standalone="no"?>
<svg
   xmlns:dc="http://purl.org/dc/elements/1.1/"
   xmlns:cc="http://creativecommons.org/ns#"
   xmlns:rdf="http://www.w3.org/1999/02/22-rdf-syntax-ns#"
   xmlns:svg="http://www.w3.org/2000/svg"
   xmlns="http://www.w3.org/2000/svg"
   xmlns:sodipodi="http://sodipodi.sourceforge.net/DTD/sodipodi-0.dtd"
   xmlns:inkscape="http://www.inkscape.org/namespaces/inkscape"
   aria-hidden="true"
   focusable="false"
   data-prefix="fas"
   data-icon="chart-line"
   class="svg-inline--fa fa-chart-line fa-w-16"
   role="img"
   viewBox="0 0 512 512"
   version="1.1"
   id="svg60"
   sodipodi:docname="inspect.svg"
   inkscape:export-filename="/home/julian/Downloads/inspect.png"
   inkscape:export-xdpi="96"
   inkscape:export-ydpi="96"
   inkscape:version="0.92.4 5da689c313, 2019-01-14">
  <metadata
     id="metadata66">
    <rdf:RDF>
      <cc:Work
         rdf:about="">
        <dc:format>image/svg+xml</dc:format>
        <dc:type
           rdf:resource="http://purl.org/dc/dcmitype/StillImage" />
        <dc:title />
      </cc:Work>
    </rdf:RDF>
  </metadata>
  <defs
     id="defs64" />
  <sodipodi:namedview
     pagecolor="#ffffff"
     bordercolor="#666666"
     borderopacity="1"
     objecttolerance="10"
     gridtolerance="10"
     guidetolerance="10"
     inkscape:pageopacity="0"
     inkscape:pageshadow="2"
     inkscape:window-width="1920"
     inkscape:window-height="1163"
     id="namedview62"
     showgrid="false"
     inkscape:zoom="1.1697645"
     inkscape:cx="157.80404"
     inkscape:cy="180.11951"
     inkscape:window-x="0"
     inkscape:window-y="0"
     inkscape:window-maximized="1"
     inkscape:current-layer="svg60" />
  <path
     d="m 283.23211,249.81006 h -138.24 v -97.28 c 0,-2.8288 -2.2912,-5.12 -5.12,-5.12 h -10.24 c -2.8288,0 -5.12,2.2912 -5.12,5.12 v 107.52 c 0,5.6544 4.5856,10.24 10.24,10.24 h 148.48 c 2.8288,0 5.12,-2.2912 5.12,-5.12 v -10.24 c 0,-2.8288 -2.2912,-5.12 -5.12,-5.12 z m -10.24,-92.16 h -37.7792 c -6.8416,0 -10.2688,8.272 -5.4304,13.1104 l 10.368,10.368 -23.4784,23.4816 -23.4784,-23.4784 c -4,-4 -10.4832,-4 -14.48,0 l -21.9808,21.9808 c -2,2 -2,5.2416 0,7.2416 l 7.2384,7.2384 c 2,2 5.2416,2 7.2416,0 l 14.7392,-14.7424 23.4784,23.4784 c 4,4 10.4832,4 14.48,0 l 30.72,-30.72 10.368,10.368 c 4.8384,4.8384 13.1104,1.4112 13.1104,-5.4304 v -37.776 c 0.003,-2.8288 -2.288,-5.12 -5.1168,-5.12 z"
     id="path58"
     inkscape:connector-curvature="0"
     style="fill:currentColor;stroke-width:0.31999999" />
  <path
     inkscape:connector-curvature="0"
     style="fill:currentColor"
     d="m 504.71647,441.76827 -99.7,-99.7 c -4.5,-4.5 -10.6,-7 -17,-7 h -16.3 c 27.6,-35.3 44,-79.7 44,-128 0,-114.900001 -93.1,-207.99999994 -208,-207.99999994 -114.899997,0 -207.99999463,93.09999894 -207.99999463,207.99999994 0,114.9 93.09999763,208 207.99999463,208 48.3,0 92.7,-16.4 128,-44 v 16.3 c 0,6.4 2.5,12.5 7,17 l 99.7,99.7 c 9.4,9.4 24.6,9.4 33.9,0 l 28.3,-28.3 c 9.4,-9.4 9.4,-24.6 0.1,-34 z m -297,-106.7 c -70.7,0 -127.999997,-57.2 -127.999997,-128 0,-70.7 57.199997,-128.000001 127.999997,-128.000001 70.7,0 128,57.200001 128,128.000001 0,70.7 -57.2,128 -128,128 z"
     id="path116" />
</svg>
