<?xml version="1.0" encoding="UTF-8" standalone="no"?>
<svg
   xmlns:dc="http://purl.org/dc/elements/1.1/"
   xmlns:cc="http://creativecommons.org/ns#"
   xmlns:rdf="http://www.w3.org/1999/02/22-rdf-syntax-ns#"
   xmlns:svg="http://www.w3.org/2000/svg"
   xmlns="http://www.w3.org/2000/svg"
   xmlns:sodipodi="http://sodipodi.sourceforge.net/DTD/sodipodi-0.dtd"
   xmlns:inkscape="http://www.inkscape.org/namespaces/inkscape"
   aria-hidden="true"
   focusable="false"
   data-prefix="fas"
   data-icon="chart-line"
   class="svg-inline--fa fa-chart-line fa-w-16"
   role="img"
   viewBox="0 0 3224.1865 512.04999"
   version="1.1"
   id="svg60"
   sodipodi:docname="inspect-large-white.svg"
   inkscape:export-filename="/home/julian/Uni/stempel/stempel_data_collection/assets/img/inspect.png"
   inkscape:export-xdpi="96"
   inkscape:export-ydpi="96"
   inkscape:version="0.92.4 5da689c313, 2019-01-14"
   width="3224.1865"
   height="512.04999">
  <metadata
     id="metadata66">
    <rdf:RDF>
      <cc:Work
         rdf:about="">
        <dc:format>image/svg+xml</dc:format>
        <dc:type
           rdf:resource="http://purl.org/dc/dcmitype/StillImage" />
        <dc:title></dc:title>
      </cc:Work>
    </rdf:RDF>
  </metadata>
  <defs
     id="defs64" />
  <sodipodi:namedview
     pagecolor="#ffffff"
     bordercolor="#666666"
     borderopacity="1"
     objecttolerance="10"
     gridtolerance="10"
     guidetolerance="10"
     inkscape:pageopacity="0"
     inkscape:pageshadow="2"
     inkscape:window-width="1920"
     inkscape:window-height="1043"
     id="namedview62"
     showgrid="false"
     inkscape:zoom="0.3535534"
     inkscape:cx="1676.7437"
     inkscape:cy="598.09381"
     inkscape:window-x="0"
     inkscape:window-y="1200"
     inkscape:window-maximized="1"
     inkscape:current-layer="svg60"
     showguides="true"
     inkscape:guide-bbox="true"
     inkscape:pagecheckerboard="true"
     fit-margin-top="0"
     fit-margin-left="0"
     fit-margin-right="0"
     fit-margin-bottom="0">
    <sodipodi:guide
       position="0.68921334,0.12234955"
       orientation="1,0"
       id="guide110"
       inkscape:locked="false" />
    <sodipodi:guide
       position="0.4409343,-0.28614894"
       orientation="0,1"
       id="guide112"
       inkscape:locked="false" />
    <sodipodi:guide
       position="0.398759,-0.30555812"
       orientation="1,0"
       id="guide114"
       inkscape:locked="false" />
    <sodipodi:guide
       position="0.97883713,-0.34462062"
       orientation="1,0"
       id="guide116"
       inkscape:locked="false" />
    <sodipodi:guide
       position="0.70539963,0.003035625"
       orientation="0,1"
       id="guide118"
       inkscape:locked="false" />
    <sodipodi:guide
       position="0.73079025,-0.57508937"
       orientation="0,1"
       id="guide120"
       inkscape:locked="false" />
  </sodipodi:namedview>
  <text
     xml:space="preserve"
     style="font-style:normal;font-weight:normal;font-size:40px;line-height:1.25;font-family:sans-serif;letter-spacing:0px;word-spacing:0px;fill:#ffffff;fill-opacity:1;stroke:none;"
     x="585.76794"
     y="501.61801"
     id="text966"><tspan
       sodipodi:role="line"
       id="tspan964"
       x="585.76794"
       y="501.61801"
       style="font-style:normal;font-variant:normal;font-weight:normal;font-stretch:normal;font-size:666.66666667px;font-family:Raleway;-inkscape-font-specification:'Raleway, weight=255';font-variant-ligatures:normal;font-variant-caps:normal;font-variant-numeric:normal;font-feature-settings:normal;text-align:start;writing-mode:lr;text-anchor:start;fill:#ffffff;">INSPECT</tspan></text>
  <path
     d="m 305.17323,259.34339 h -172.8 v -121.6 c 0,-3.536 -2.864,-6.4 -6.4,-6.4 h -12.8 c -3.536,0 -6.4,2.864 -6.4,6.4 v 134.4 c 0,7.068 5.732,12.8 12.8,12.8 h 185.6 c 3.536,0 6.4,-2.864 6.4,-6.4 v -12.8 c 0,-3.536 -2.864,-6.4 -6.4,-6.4 z m -12.8,-115.2 h -47.224 c -8.552,0 -12.836,10.34 -6.788,16.388 l 12.96,12.96 -29.348,29.352 -29.348,-29.348 c -5,-5 -13.104,-5 -18.1,0 l -27.476,27.476 c -2.5,2.5 -2.5,6.552 0,9.052 l 9.048,9.048 c 2.5,2.5 6.552,2.5 9.052,0 l 18.424,-18.428 29.348,29.348 c 5,5 13.104,5 18.1,0 l 38.4,-38.4 12.96,12.96 c 6.048,6.048 16.388,1.764 16.388,-6.788 v -47.22 c 0.004,-3.536 -2.86,-6.4 -6.396,-6.4 z"
     id="path58-4"
     inkscape:connector-curvature="0"
     style="fill:#ffffff;stroke-width:0.39999998"
     sodipodi:nodetypes="scsssssssssssssccscsssccsccsscs" />
  <path
     inkscape:connector-curvature="0"
     style="fill:#ffffff"
     d="m 507.45759,441.0616 -99.7,-99.7 c -4.5,-4.5 -10.6,-7 -17,-7 h -16.3 c 27.6,-35.3 44,-79.7 44,-128 0,-114.9 -93.1,-208 -208,-208 -114.89999,0 -207.99999,93.1 -207.99999,208 0,114.9 93.1,208 207.99999,208 48.3,0 92.7,-16.4 128,-44 v 16.3 c 0,6.4 2.5,12.5 7,17 l 99.7,99.7 c 9.4,9.4 24.6,9.4 33.9,0 l 28.3,-28.3 c 9.4,-9.4 9.4,-24.6 0.1,-34 z m -297,-94.7 c -74.97457,0.38979 -142.39684,-61.93469 -141.99999,-140 0.38765,-76.25689 63.93792,-142.78486 141.99999,-142 77.11239,0.7753 142,65.21589 142,142 0,74.97436 -64.36217,139.59637 -142,140 z"
     id="path116-0"
     sodipodi:nodetypes="csscsssscssscscsssss" />
</svg>
