<?xml version="1.0" encoding="utf-8"?>

<!DOCTYPE svg PUBLIC "-//W3C//DTD SVG 1.1//EN" "http://www.w3.org/Graphics/SVG/1.1/DTD/svg11.dtd">
<svg version="1.1" id="Layer_1" xmlns="http://www.w3.org/2000/svg" xmlns:xlink="http://www.w3.org/1999/xlink" x="0px" y="0px"
	 viewBox="0 0 1622.9 1661.91" enable-background="new 0 0 1622.9 1661.91" xml:space="preserve">
<g>
	<path fill="#240501" stroke="#240501" stroke-width="1.8781" d="M750.775,228.32c2.479-6.423,10.48-4.545,15.814-5.409
		c26.068-0.376,52.324-1.54,78.317,0.977c1.352,1.089,4.019,3.305,5.371,4.395C817.11,226.855,783.905,226.892,750.775,228.32z"/>
	<path fill="#FCD4B4" stroke="#FCD4B4" stroke-width="1.8781" d="M550.195,272.68c62.202-30.65,132.406-38.313,200.58-44.361
		c33.13-1.427,66.334-1.465,99.501-0.038c60.55,4.883,121.625,11.87,179.396,31.74c24.603,8.602,48.868,19.419,69.377,35.759
		c5.221,3.831,8.076,9.804,10.48,15.626c17.955,44.361,33.017,90.036,42.069,137.063c8.714,61.151,8.113,123.015,12.095,184.541
		c0.638,13.41,2.366,27.383-2.404,40.304c-24.528,74.748-48.643,149.759-77.453,222.967c-3.606,11.569-15.025,21.448-27.721,18.105
		c-11.419-1.352-15.701-13.222-20.997-21.673c-25.655-45.75-72.607-80.796-125.72-85.303c-34.482-2.93-72.044,4.169-99.238,26.556
		c33.956,0.901,72.307,7.174,95.595,34.444c15.363,21.147,25.768,47.704,21.673,74.185c-3.343,18.443-16.227,33.618-31.477,43.76
		c-34.632,22.988-78.354,29.786-118.921,22.687c-29.186-6.273-60.024-17.692-78.166-42.745
		c-13.222-17.992-14.123-42.482-6.648-62.991c6.648-18.894,16.377-38.05,33.693-49.206c23.439-15.438,52.173-19.157,79.594-20.284
		c-27.27-22.049-64.456-29.336-98.825-26.481c-52.249,4.245-98.9,38.201-124.518,83.087c-5.785,9.128-10.067,22.011-22.274,23.927
		c-11.419,3.08-22.838-4.733-26.481-15.475c-30.613-74.448-56.831-150.661-80.382-227.587c-2.667-7.888-1.916-16.302-1.465-24.415
		c4.845-65.846,3.531-132.18,12.921-197.613c8.902-47.29,23.852-93.304,42.107-137.777
		C513.159,291.762,533.668,282.634,550.195,272.68z"/>
	<path fill="#442217" stroke="#442217" stroke-width="1.8781" d="M1206.175,459.062c2.92-59.662-2.517-121.603-21.662-178.48
		c-5.085-15.105-12.583-29.447-18.529-44.224c-11.081-31.026-25.129-61.076-42.933-88.834
		c-23.176-32.491-55.892-59.31-94.656-70.466c-38.169-10.985-76.191-25.717-115.412-31.328c-24.799-3.547-49.687-6.479-74.631-8.793
		c-22.237-2.062-44.603-5.072-66.962-5.836c-83.415-2.852-156.974,36.539-230.66,70.485c-10.104,4.207-17.579,12.546-24.791,20.471
		c-29.223,35.759-52.887,76.251-67.799,120.048c-20.172,41.935-31.034,87.714-35.887,133.842
		c-4.782,45.456-5.97,93.566-0.432,138.927c1.046,8.565,1.612,17.232,2.738,25.772c2.78,21.072,6.01,42.032,9.09,63.067
		c2.291,15.1-1.089,30.237-1.653,45.337c6.536,20.095,0.714,41.092,1.615,61.639c-0.225,18.255,4.733,37.149-2.141,54.803
		l-0.263,3.907c5.184,56.305,16.527,112.272,34.745,165.948c5.033,13.522,1.953,28.134,2.967,42.182
		c4.395,38.463,13.635,76.664,30.463,111.672c23.476,52.211,60.362,96.684,97.999,139.204
		c34.181,32.115,67.799,64.869,103.896,94.881c57.245,49.169,141.12,62.578,211.999,38.351
		c16.415-5.747,29.373-17.804,43.234-27.833c38.801-29.975,76.889-61.376,109.305-98.262c13.395-15.038,25.81-30.95,37.14-47.6
		c9.768-14.355,18.731-29.258,26.816-44.624c12.564-23.878,18.714-51.695,24.773-77.985c6.263-27.171,11.052-54.669,14.857-82.287
		c5.065-36.759,7.684-73.828,8.543-110.916c0.673-29.079,10.263-58.298,15.957-86.841c7.926-46.877,10.292-94.731,6.986-142.134
		c-1.638-26.905,3.69-53.221,7.496-79.699c2.548-17.731,4.882-35.501,6.49-53.346
		C1206.417,492.965,1205.337,476.181,1206.175,459.062z M1161.289,673.315c-24.528,74.748-48.642,149.759-77.453,222.967
		c-3.606,11.569-15.025,21.448-27.721,18.105c-11.419-1.352-15.701-13.222-20.997-21.673
		c-25.655-45.751-72.607-80.796-125.72-85.303c-34.482-2.93-72.044,4.169-99.238,26.556c33.956,0.901,72.307,7.174,95.595,34.444
		c15.363,21.147,25.767,47.704,21.673,74.185c-3.343,18.443-16.227,33.618-31.477,43.76
		c-34.632,22.988-78.354,29.786-118.921,22.687c-29.186-6.273-60.024-17.692-78.166-42.745
		c-13.222-17.992-14.123-42.482-6.648-62.991c6.648-18.893,16.377-38.05,33.693-49.206c23.439-15.438,52.173-19.156,79.594-20.284
		c-27.27-22.049-64.456-29.336-98.825-26.481c-52.249,4.245-98.9,38.201-124.518,83.087c-5.784,9.128-10.067,22.011-22.274,23.927
		c-11.419,3.08-22.838-4.733-26.481-15.475c-30.613-74.448-56.831-150.661-80.382-227.587c-2.667-7.888-1.916-16.302-1.465-24.415
		c4.845-65.846,3.531-132.18,12.921-197.613c8.902-47.29,23.852-93.304,42.107-137.777c6.573-19.72,27.082-28.848,43.609-38.801
		c62.202-30.651,132.406-38.313,200.58-44.361c2.479-6.423,10.48-4.545,15.814-5.409c26.068-0.376,52.324-1.54,78.316,0.977
		c1.352,1.089,4.019,3.305,5.371,4.395c60.55,4.883,121.625,11.869,179.396,31.74c24.603,8.602,48.868,19.419,69.377,35.759
		c5.221,3.831,8.076,9.804,10.48,15.626c17.954,44.361,33.017,90.036,42.069,137.063c8.714,61.151,8.113,123.015,12.095,184.541
		C1164.331,646.421,1166.059,660.394,1161.289,673.315z"/>
	<path fill="#FCD4B4" stroke="#FCD4B4" stroke-width="1.8781" d="M372.339,572.048c9.428-15.513,23.251-29.599,42.22-31.402
		c2.78,21.072,6.01,42.032,9.09,63.066c2.291,15.1-1.089,30.237-1.653,45.337c-3.982,38.726-3.343,77.678-0.526,116.442
		l-0.263,3.906c-31.064-34.407-51.911-77.34-60.925-122.752C358.554,621.329,358.592,594.36,372.339,572.048z"/>
	<path fill="#FCD4B4" stroke="#FCD4B4" stroke-width="1.8781" d="M1190.888,643.153c-2.103-34.557,6.799-68.438,10.668-102.581
		c21.823-0.714,42.144,14.762,50.521,34.444c18.18,32.829,13.748,73.283,1.315,107.314c-8.865,27.533-23.551,52.774-41.243,75.537
		c-7.212,11.193-17.016,20.359-28.246,27.42C1191.827,738.41,1194.193,690.556,1190.888,643.153z"/>
	<path fill="#2D0C05" stroke="#2D0C05" stroke-width="1.8781" d="M421.996,649.05c6.536,20.096,0.714,41.093,1.615,61.639
		c-0.225,18.255,4.733,37.149-2.141,54.803C418.653,726.728,418.015,687.776,421.996,649.05z"/>
	<path fill="#FCD4B4" stroke="#FCD4B4" stroke-width="1.8781" d="M496.444,1258.867c29.524-12.208,60.4-21.147,90.937-30.463
		c34.181,32.115,67.799,64.869,103.896,94.881c57.244,49.169,141.12,62.578,211.999,38.351
		c16.415-5.747,29.373-17.804,43.234-27.833c38.801-29.974,76.889-61.376,109.305-98.262c24.04,9.015,50.183,12.395,73.02,24.302
		c-41.243,116.029-130.077,215.004-243.288,264.436c-24.002,9.916-48.192,20.584-73.922,24.753
		c-32.153-3.568-62.879-15.663-92.402-28.434C610.519,1472.481,528.709,1372.529,496.444,1258.867z"/>
	<path fill="#20136E" stroke="#20136E" stroke-width="1.8781" d="M458.056,1265.929c12.358-3.831,24.453-8.94,37.374-10.78
		l1.014,3.719c32.266,113.662,114.075,213.614,222.779,261.731c29.524,12.771,60.249,24.866,92.402,28.434
		c25.73-4.169,49.92-14.837,73.922-24.753c113.211-49.432,202.045-148.407,243.288-264.436c0.526-1.277,1.578-3.831,2.066-5.146
		c36.876,12.357,73.851,24.416,110.862,36.363c35.755,11.541,71.606,25.026,108.001,33.996
		c62.429,15.386,118.805,46.534,161.826,94.683c46.234,51.745,70.294,115.645,78.281,183.969c0.19,1.626,2.997,27.246,3.718,27.246
		c-521.096-0.075-1042.192,0-1563.287,0c3.944-74.711,29.186-149.947,78.129-207.417c18.856-18.781,36.585-39.177,59.536-53.188
		c35.346-26.03,78.091-38.614,120.085-49.319C344.807,1302.927,401.375,1284.334,458.056,1265.929z"/>
</g>
</svg>
